<?xml version="1.0" encoding="UTF-8"?>
<svg id="Capa_1" data-name="Capa 1" xmlns="http://www.w3.org/2000/svg" viewBox="0 0 369.08 411.6">
  <defs>
    <style>
      .cls-1 {
        fill: #0d3f89;
        stroke-width: 0px;
      }
    </style>
  </defs>
  <path class="cls-1" d="m369.08,411.6h-59.78v-104.48c20.16,7.92,39.97,15.71,59.78,23.49v80.99Z"/>
  <path class="cls-1" d="m304.78,411.54H64.08c0-1.7,0-3.29,0-4.87.02-42.32.1-84.64-.02-126.96,0-3.49,1.21-5.31,4.04-7,37.98-22.68,75.93-45.42,113.8-68.28,2.6-1.57,4.32-1.23,6.66.2,37.48,22.87,75,45.67,112.54,68.44,2.22,1.35,3.89,2.46,3.88,5.61-.1,43.31-.05,86.63-.04,129.94,0,.81-.08,1.62-.15,2.92Zm-92.62-8.13c0-18.87.02-37.32-.04-55.77,0-1.96-.3-3.98-.83-5.87-4.06-14.34-16.58-22.06-32.35-20.03-12.12,1.56-22.5,13.84-22.64,27.23-.18,17.15-.08,34.31-.08,51.47,0,.94.28,1.88.45,2.98h55.49Zm67.91-21.26c0-13.09.37-25.67-.13-38.22-.35-8.86-7.77-14.87-16.85-14.88-9.05,0-16.33,6.02-16.89,14.88-.61,9.74-.46,19.53-.62,29.29-.05,2.91,0,5.83,0,8.92h34.49Zm-157.06-.2c0-12.33.08-23.98-.02-35.63-.08-8.9-6.37-15.82-15.14-16.94-9.07-1.16-17.61,3.49-18.47,12.52-1.25,13.1-.32,26.42-.32,40.05h33.96Zm61.24-111.25c9.43,0,16.86-7.08,16.83-16.05-.03-9.88-7.29-17.24-16.89-17.15-9.31.09-16.74,7.65-16.66,16.94.07,9.12,7.4,16.25,16.72,16.25Z"/>
  <path class="cls-1" d="m183.93,79.49c13.16,15.36,25.48,29.75,37.81,44.13,6.28,7.32,12.62,14.58,18.83,21.95,1,1.18,2.06,2.82,2.07,4.26.12,27.26.09,54.52.09,82.78-6.54-3.92-12.58-7.51-18.59-11.14-12.23-7.39-24.4-14.9-36.75-22.07-1.36-.79-4.14-.33-5.67.56-16.62,9.77-33.11,19.74-49.65,29.64-1.8,1.08-3.67,2.03-6.16,3.41,0-12.54-.02-24.31,0-36.07.02-15.15,0-30.3.2-45.45.02-1.97.67-4.36,1.9-5.81,17.78-20.91,35.71-41.69,53.58-62.53.85-1,1.44-2.22,2.35-3.66Zm18,99.8c0-12.12.23-23.9-.11-35.65-.15-5.08-4.05-8.42-9.3-8.7-5.31-.29-10.66-.32-15.97-.1-6.07.25-9.73,4.27-9.79,10.36-.05,4.98.07,9.97.09,14.96.02,6.27,0,12.53,0,19.14h35.08Z"/>
  <path class="cls-1" d="m0,411.37c0-8.63,0-16.92,0-25.21.02-17.14.11-34.28.02-51.42-.02-3.01.62-4.7,3.77-5.9,18.38-7,36.66-14.29,55.61-21.73v104.26H0Z"/>
  <path class="cls-1" d="m176.22,45.08c-8.97,0-16.94-.1-24.9.05-3.12.06-4.62-.74-4.41-4.18.24-4.12.06-8.26.06-12.87h28.69V0h17.16v27.55h28.09v17.57h-27.65v39.12c-3.45-3.89-6-6.77-8.86-9.98-2.57,2.79-5.01,5.44-8.18,8.9v-38.06Z"/>
</svg>